HIERARCHY
ROOT Hips
{
 OFFSET 0.000000 0.000000 0.000000
 CHANNELS 6 Xposition Yposition Zposition Yrotation Xrotation Zrotation
 JOINT Chest
 {
  OFFSET 0.000000 14.374500 -0.011500
  CHANNELS 3 Yrotation Xrotation Zrotation
  JOINT Chest2
  {
   OFFSET 0.000000 9.203400 0.023400
   CHANNELS 3 Yrotation Xrotation Zrotation
   JOINT Chest3
   {
    OFFSET 0.000000 9.162700 0.000000
    CHANNELS 3 Yrotation Xrotation Zrotation
    JOINT Chest4
    {
     OFFSET 0.000000 9.153300 0.000000
     CHANNELS 3 Yrotation Xrotation Zrotation
     JOINT Neck
     {
      OFFSET 0.000000 13.353600 0.000000
      CHANNELS 3 Yrotation Xrotation Zrotation
      JOINT Head
      {
       OFFSET 0.000000 8.573800 0.049400
       CHANNELS 3 Yrotation Xrotation Zrotation
       End Site
       {
        OFFSET 0.000000 16.219200 0.026100
       }
      }
     }
     JOINT RightCollar
     {
      OFFSET -2.497100 8.876100 0.000000
      CHANNELS 3 Yrotation Xrotation Zrotation
      JOINT RightShoulder
      {
       OFFSET -12.289200 0.000000 0.000000
       CHANNELS 3 Yrotation Xrotation Zrotation
       JOINT RightElbow
       {
        OFFSET 0.000000 -28.194900 0.000000
        CHANNELS 3 Yrotation Xrotation Zrotation
        JOINT RightWrist
        {
         OFFSET 0.000000 -23.009700 0.007900
         CHANNELS 3 Yrotation Xrotation Zrotation
         End Site
         {
          OFFSET 0.000000 -17.151500 0.000000
         }
        }
       }
      }
     }
     JOINT LeftCollar
     {
      OFFSET 2.497100 8.876100 0.000000
      CHANNELS 3 Yrotation Xrotation Zrotation
      JOINT LeftShoulder
      {
       OFFSET 12.289200 0.000000 0.000000
       CHANNELS 3 Yrotation Xrotation Zrotation
       JOINT LeftElbow
       {
        OFFSET 0.000000 -28.194900 0.000000
        CHANNELS 3 Yrotation Xrotation Zrotation
        JOINT LeftWrist
        {
         OFFSET 0.000000 -23.009700 0.007900
         CHANNELS 3 Yrotation Xrotation Zrotation
         End Site
         {
          OFFSET 0.000000 -17.151500 0.000000
         }
        }
       }
      }
     }
    }
   }
  }
 }
 JOINT RightHip
 {
  OFFSET -11.777600 0.056700 0.005700
  CHANNELS 3 Yrotation Xrotation Zrotation
  JOINT RightKnee
  {
   OFFSET 0.000000 -39.966000 -0.004200
   CHANNELS 3 Yrotation Xrotation Zrotation
   JOINT RightAnkle
   {
    OFFSET 0.000000 -41.981900 0.027400
    CHANNELS 3 Yrotation Xrotation Zrotation
    JOINT RightToe
    {
     OFFSET 0.000000 -9.910600 16.950100
     CHANNELS 3 Yrotation Xrotation Zrotation
     End Site
     {
      OFFSET 0.000000 -1.461000 6.191600
     }
    }
   }
  }
 }
 JOINT LeftHip
 {
  OFFSET 11.777600 0.056700 0.005700
  CHANNELS 3 Yrotation Xrotation Zrotation
  JOINT LeftKnee
  {
   OFFSET 0.000000 -39.966000 -0.004200
   CHANNELS 3 Yrotation Xrotation Zrotation
   JOINT LeftAnkle
   {
    OFFSET 0.000000 -41.981900 0.027400
    CHANNELS 3 Yrotation Xrotation Zrotation
    JOINT LeftToe
    {
     OFFSET 0.000000 -9.910600 16.950100
     CHANNELS 3 Yrotation Xrotation Zrotation
     End Site
     {
      OFFSET 0.000000 -1.461000 6.191600
     }
    }
   }
  }
 }
}
MOTION
Frames: 6
Frame Time: 0.008333
-6.719455 130.410740 91.497585 173.640082 -44.671493 -2.655273 4.747647 30.297351 5.903948 0.670822 6.145613 0.945037 1.085043 9.482265 1.501061 3.403536 24.063002 4.357729 -7.526380 16.543405 -3.638184 -7.312575 -8.114228 -2.187162 5.968067 -0.040793 2.090845 25.414957 -40.241224 -17.042153 -106.620747 -39.572809 157.044869 -7.107970 4.109143 5.112587 -18.200896 -3.533912 -1.390307 -24.678426 -36.381621 20.525178 17.369381 -43.939421 -69.689181 7.734681 0.612749 -28.174058 7.456500 -32.858744 1.641829 -82.567128 86.296231 -85.408300 4.018825 -27.337931 7.575366 0.000108 -0.008034 0.000063 -4.320935 -34.493932 -2.011540 145.642071 71.896285 156.896978 -4.416864 17.270490 -8.254130 0.003299 -0.001199 0.001929
-6.716734 130.413593 91.487432 173.638771 -44.651557 -2.647422 4.752279 30.340103 5.902989 0.669012 6.090175 0.940545 1.085368 9.498136 1.498275 3.400170 24.058732 4.348083 -7.582415 16.424259 -3.695475 -7.362594 -8.239150 -2.238483 6.014940 -0.054041 2.066762 25.404714 -40.214421 -17.016378 -106.668843 -39.580628 157.075460 -7.109852 4.109910 5.104568 -18.184234 -3.557319 -1.388375 -24.696303 -36.372656 20.531429 17.402669 -43.887622 -69.744083 7.697864 0.629976 -28.129509 7.464630 -32.876927 1.638071 -82.733155 86.294442 -85.569534 4.018266 -27.341590 7.570764 -0.000111 -0.013798 -0.000065 -4.327195 -34.502647 -2.013452 145.644948 71.898404 156.896004 -4.418221 17.271648 -8.258066 0.001793 -0.009251 0.001048
-6.715740 130.412877 91.480983 173.630641 -44.613840 -2.630894 4.752673 30.331389 5.888472 0.665634 6.088466 0.940006 1.085784 9.508603 1.490260 3.400509 24.037816 4.345474 -7.635015 16.311333 -3.753826 -7.409286 -8.358373 -2.287698 6.031518 -0.070077 2.063866 25.414352 -40.196594 -17.011236 -106.678875 -39.581322 157.084475 -7.108669 4.111813 5.094482 -18.170435 -3.577503 -1.383114 -24.710630 -36.372418 20.534032 17.425617 -43.835555 -69.785815 7.685547 0.655539 -28.084308 7.480395 -32.915290 1.624902 -82.908178 86.294389 -85.739743 4.010241 -27.338786 7.572425 -0.002072 -0.012104 -0.001212 -4.327497 -34.525049 -2.020182 145.638965 71.903297 156.886560 -4.416552 17.267348 -8.263556 0.000289 -0.011265 0.000169
-6.713854 130.412550 91.474766 173.639413 -44.579438 -2.631295 4.742978 30.324059 5.879813 0.667211 6.104488 0.935182 1.085881 9.471496 1.492927 3.395994 24.050487 4.333170 -7.682781 16.200414 -3.802129 -7.452544 -8.472067 -2.335169 6.046224 -0.088414 2.066004 25.423441 -40.179704 -17.005195 -106.694608 -39.583414 157.100057 -7.104790 4.115685 5.083368 -18.136046 -3.611191 -1.383870 -24.757738 -36.365961 20.544209 17.468491 -43.718828 -69.859814 7.642322 0.713067 -28.007345 7.478895 -32.950231 1.612219 -83.110853 86.303577 -85.940002 4.021821 -27.327830 7.571995 -0.002238 -0.008935 -0.001309 -4.334494 -34.555831 -2.023666 145.671680 71.898253 156.922229 -4.410882 17.271986 -8.262105 0.000781 -0.010039 0.000457
-6.713348 130.411874 91.469056 173.640507 -44.546083 -2.622530 4.734818 30.315470 5.866585 0.667947 6.086278 0.933967 1.082948 9.483176 1.488959 3.394206 24.046288 4.327335 -7.725981 16.097073 -3.852331 -7.492075 -8.579937 -2.380313 6.084131 -0.106571 2.046772 25.460787 -40.114132 -16.998749 -106.816835 -39.598311 157.171685 -7.104795 4.123772 5.082073 -18.124120 -3.626343 -1.377111 -24.764372 -36.363366 20.544066 17.483958 -43.672304 -69.898411 7.620199 0.738426 -27.969031 7.480489 -32.980917 1.602683 -83.352311 86.307181 -86.185159 4.015050 -27.336677 7.573286 -0.004280 -0.009586 -0.002502 -4.335475 -34.581207 -2.031430 145.689757 71.893165 156.939332 -4.401762 17.263505 -8.263487 -0.000662 -0.010538 -0.000387
-6.711958 130.408984 91.466258 173.631385 -44.502486 -2.612933 4.736788 30.293362 5.859018 0.667533 6.085891 0.934291 1.081886 9.477850 1.485577 3.387892 24.049481 4.313599 -7.758809 15.994657 -3.893036 -7.527438 -8.679945 -2.422544 6.113430 -0.130096 2.040703 25.469148 -40.084908 -16.989506 -106.865207 -39.606966 157.201547 -7.102017 4.128758 5.085229 -18.110285 -3.645165 -1.362873 -24.772886 -36.373104 20.542742 17.485573 -43.620491 -69.926545 7.594349 0.751273 -27.930173 7.487831 -33.022372 1.601376 -83.498339 86.306245 -86.333530 4.008571 -27.342768 7.575168 -0.004370 -0.006765 -0.002555 -4.337251 -34.606666 -2.030592 145.712537 71.885132 156.970454 -4.397489 17.230730 -8.282662 0.004512 0.000181 0.002638
